HIERARCHY
ROOT Hips
{
  OFFSET 0 0 0
  CHANNELS 6 Xposition Yposition Zposition Zrotation Yrotation Xrotation
  JOINT LeftThigh
  {
    OFFSET 8.409438 0 -5.917753
    CHANNELS 3 Zrotation Yrotation Xrotation
    JOINT LeftLeg
    {
      OFFSET 0 0 -42.358652
      CHANNELS 3 Zrotation Yrotation Xrotation
      JOINT LeftFoot
      {
        OFFSET 0 0 -39.357303
        CHANNELS 3 Zrotation Yrotation Xrotation
      }
    }
  }
  JOINT RightThigh
  {
    OFFSET -8.409438 0 -5.917753
    CHANNELS 3 Zrotation Yrotation Xrotation
    JOINT RightLeg
    {
      OFFSET 0 0 -42.358652
      CHANNELS 3 Zrotation Yrotation Xrotation
      JOINT RightFoot
      {
        OFFSET 0 0 -39.357303
        CHANNELS 3 Zrotation Yrotation Xrotation
      }
    }
  }
  JOINT SpineLow
  {
    OFFSET 0 0 4.719101
    CHANNELS 3 Zrotation Yrotation Xrotation
    JOINT SpineMid
    {
      OFFSET 0 0 12.899191
      CHANNELS 3 Zrotation Yrotation Xrotation
      JOINT Chest
      {
        OFFSET 0 0 12.899191
        CHANNELS 3 Zrotation Yrotation Xrotation
        JOINT LeftShoulder
        {
          OFFSET 7.550562 1.41573 9.438202
          CHANNELS 3 Zrotation Yrotation Xrotation
          JOINT LeftArm
          {
            OFFSET 9.155056 0 4.247191
            CHANNELS 3 Zrotation Yrotation Xrotation
            JOINT LeftForearm
            {
              OFFSET 0 0 25.771955
              CHANNELS 3 Zrotation Yrotation Xrotation
              JOINT LeftHand
              {
                OFFSET 0 0 25.197169
                CHANNELS 3 Zrotation Yrotation Xrotation
              }
            }
          }
        }
        JOINT RightShoulder
        {
          OFFSET -7.550562 1.41573 9.438202
          CHANNELS 3 Zrotation Yrotation Xrotation
          JOINT RightArm
          {
            OFFSET -9.155056 0 4.247191
            CHANNELS 3 Zrotation Yrotation Xrotation
            JOINT RightForearm
            {
              OFFSET 0 0 -25.771955
              CHANNELS 3 Zrotation Yrotation Xrotation
              JOINT RightHand
              {
                OFFSET 0 0 -25.197169
                CHANNELS 3 Zrotation Yrotation Xrotation
              }
            }
          }
        }
        JOINT Neck
        {
          OFFSET 0 0 15.101124
          CHANNELS 3 Zrotation Yrotation Xrotation
          JOINT Head
          {
            OFFSET 0 0 11.325843
            CHANNELS 3 Zrotation Yrotation Xrotation
            End Site
            {
              OFFSET 0 0 14.157303
            }
          }
        }
      }
    }
  }
}
MOTION
Frames: 6
Frame Time: 0.0
0.0  93.25843  0.0  -1.26151  -29.834345  -91.031751  22.985386  -12.162064  4.602549  4.720939  -1.009394  6.921689  4.537537  0.152984  0.783778  -8.43852  0.342118  -9.378535  -7.224488  4.523022  0.51481  4.064097  0.586503  0.292749  0.682194  -1.522461  0.776105  1.817815  -4.182543  2.08078  1.817815  -4.182543  2.08078  -22.582435  27.703302  -15.301356  124.842502  35.746361  -170.271569  50.779187  6.347864  30.894119  92.53975  33.045081  -5.185968  4.882557  -0.133857  21.600067  97.50554  40.903279  31.707807  7.341268  -36.573075  -118.822594  70.645229  39.569527  16.058312  2.280265  7.862291  1.208593  1.691876  5.901341  0.875531  
0.0  93.25843  0.0  -1.29955  -29.900952  -91.056269  23.13069  -12.250207  4.547417  4.716174  -0.951604  7.081692  4.434324  0.130163  0.750916  -8.738309  0.203227  -9.424027  -6.983033  4.632061  0.644546  4.100424  0.598965  0.284568  0.714026  -1.537794  0.793856  1.903335  -4.225936  2.126927  1.903335  -4.225936  2.126927  -22.023064  27.772728  -15.163098  125.238344  35.795838  -170.089329  50.487628  5.751028  31.330673  92.440535  32.679998  -5.285504  4.848284  -0.074226  21.597369  97.079548  41.045671  31.495038  7.576816  -36.468401  -118.741385  70.888143  39.493359  16.157741  2.194731  7.872368  1.201824  1.627887  5.9087  0.871527  
0.0  93.25843  0.0  -1.322978  -29.797235  -91.018355  23.174934  -12.316187  4.432168  4.643406  -0.901481  7.206059  4.366025  0.125185  0.756763  -8.901356  0.12384  -9.445684  -6.759833  4.761558  0.766809  4.086415  0.596336  0.274231  0.748421  -1.541943  0.80348  1.996714  -4.238647  2.150937  1.996713  -4.238647  2.150936  -21.75196  27.693798  -15.059922  125.500638  35.887111  -169.835769  49.922134  5.119902  31.757206  92.35273  32.407871  -5.367169  4.760019  -0.109014  21.633498  96.925644  41.055172  31.421853  7.429418  -36.393125  -118.551899  71.172646  39.450998  16.283027  2.073122  7.855657  1.22076  1.536623  5.895982  0.887345  
0.0  93.25843  0.0  -1.368477  -29.835975  -91.072961  23.236251  -12.430535  4.360279  4.563446  -0.850582  7.325931  4.351833  0.107605  0.8112  -9.137531  -0.011119  -9.417265  -6.455563  4.893031  0.915545  4.189727  0.612256  0.285452  0.785252  -1.558898  0.820064  2.095913  -4.286676  2.193452  2.095913  -4.286676  2.193452  -20.917712  27.895628  -14.774374  126.255412  35.969859  -169.677527  50.121318  4.178023  32.598293  92.388082  32.062999  -5.432532  4.714205  -0.056577  21.654968  96.603521  41.121689  31.256546  7.36442  -36.341985  -118.388246  71.223168  39.333664  16.22713  2.038183  7.870583  1.289344  1.509534  5.907336  0.939097  
0.0  93.25843  0.0  -1.392663  -29.621992  -91.046221  23.168015  -12.510401  4.236043  4.498864  -0.791923  7.489455  4.274897  0.095032  0.81916  -9.291848  -0.073986  -9.371402  -6.271346  5.039039  1.017958  4.148435  0.605018  0.279049  0.821955  -1.567076  0.813194  2.196556  -4.309997  2.172006  2.196556  -4.309997  2.172006  -20.598143  27.893491  -14.509896  126.688357  36.123269  -169.372074  49.831975  3.400496  33.241879  92.311079  31.762351  -5.467981  4.541505  -0.070118  21.771519  96.379938  41.120971  31.11827  7.167638  -36.274313  -118.154292  71.425777  39.27849  16.278385  1.871348  7.847882  1.379197  1.383506  5.890226  1.00862  
0.0  93.25843  0.0  -1.443816  -29.499002  -91.078013  22.902007  -12.665536  4.042301  4.526935  -0.714624  7.734093  4.231674  0.101734  0.875764  -9.535122  -0.192888  -9.329503  -6.1662  5.205738  1.126629  4.352309  0.600848  0.330658  0.861165  -1.584568  0.827513  2.302388  -4.359553  2.208058  2.302388  -4.359553  2.208058  -19.776846  28.07286  -14.187543  128.305011  36.247525  -169.015017  50.795456  2.118716  34.589917  92.29223  31.3972  -5.447392  4.22825  -0.020435  21.653696  96.184671  41.07199  30.985346  6.914509  -36.167967  -117.830863  71.359662  39.151083  16.134899  1.740553  7.837363  1.437094  1.284847  5.8822  1.053697  
